<svg width="50" height="50" viewBox="0 0 50 50" fill="none" xmlns="http://www.w3.org/2000/svg">
<path d="M45.5854 25.3208C45.5844 24.9806 45.4863 24.6476 45.3026 24.3611C45.1189 24.0745 44.8573 23.8462 44.5485 23.7031L6.638 5.99357C6.3073 5.84459 5.93922 5.79969 5.58266 5.86484C5.2261 5.92998 4.89792 6.10208 4.64172 6.35828C4.38552 6.61448 4.21342 6.94266 4.14828 7.29922C4.08314 7.65578 4.12804 8.02386 4.27701 8.35456L10.805 23.5437L26.8492 23.5281L26.8513 27.0907L10.7566 27.081L4.25967 42.2748C4.11843 42.6034 4.07916 42.967 4.14694 43.3184C4.21473 43.6698 4.38645 43.9929 4.63987 44.2458C4.90055 44.496 5.23085 44.6615 5.58722 44.7203C5.94358 44.7792 6.30929 44.7287 6.63612 44.5755L44.5251 26.9119C44.8346 26.7747 45.0986 26.5522 45.2864 26.2705C45.4741 25.9888 45.5778 25.6594 45.5854 25.3208Z" fill="#80D9FF"/>
</svg>
