<svg width="50" height="50" viewBox="0 0 50 50" fill="none" xmlns="http://www.w3.org/2000/svg">
<path fill-rule="evenodd" clip-rule="evenodd" d="M5.345 29.9846C8.90667 33.9763 12.8958 37.999 17.3125 42.0527L21.625 46.0018C22.5833 46.8794 23.7083 47.3182 25 47.3182C26.2917 47.3182 27.4167 46.8794 28.375 46.0018L32.625 42.1153C37.125 38.0617 41.1458 34.029 44.6875 30.0172C48.2292 26.0053 50 21.5965 50 16.7907C50 12.8624 48.6875 9.58191 46.0625 6.94914C43.4375 4.31638 40.1667 3 36.25 3C34.0417 3 31.9583 3.46972 30 4.40915C29.2834 4.75351 28.6059 5.14396 27.9675 5.58052C26.8611 6.33706 25.8719 7.23207 25 8.26553C24.1281 7.23207 23.1389 6.33706 22.0325 5.58052C21.3941 5.14396 20.7166 4.75351 20 4.40915C18.0417 3.46972 15.9583 3 13.75 3C9.83333 3 6.5625 4.31638 3.9375 6.94914C1.3125 9.58191 0 12.8624 0 16.7907C0 21.5965 1.78167 25.9945 5.345 29.9846ZM31.7326 8.01445C33.141 7.33928 34.6311 7 36.25 7C39.167 7 41.3989 7.93696 43.2299 9.77339C45.0616 11.6105 46 13.8547 46 16.7907C46 20.5088 44.664 23.9998 41.6888 27.3699C38.2602 31.2537 34.349 35.1787 29.9478 39.1433L29.9367 39.1534L25.6736 43.0518C25.4479 43.2585 25.2849 43.3182 25 43.3182C24.7151 43.3182 24.5521 43.2585 24.3264 43.0518L20.0172 39.1057C20.0164 39.105 20.0157 39.1043 20.0149 39.1036C15.6857 35.1301 11.7924 31.2024 8.32965 27.3215L8.32847 27.3202C5.34007 23.9739 4 20.5002 4 16.7907C4 13.8547 4.93841 11.6105 6.7701 9.77339C8.60111 7.93697 10.833 7 13.75 7C15.3694 7 16.86 7.3395 18.2687 8.01509C19.7274 8.71626 20.9392 9.65542 21.9427 10.8448L25 14.4687L28.0573 10.8448C29.061 9.6552 30.2736 8.71567 31.7326 8.01445Z" fill="#FF1A7A"/>
</svg>
