<svg width="50" height="50" viewBox="0 0 50 50" fill="none" xmlns="http://www.w3.org/2000/svg">
<path fill-rule="evenodd" clip-rule="evenodd" d="M31.2541 1.89596C29.4025 0.659799 27.2257 0 24.9988 0C22.0127 0 19.1489 1.18526 17.0374 3.29504C14.9259 5.40481 13.7396 8.26628 13.7396 11.25C13.7396 13.475 14.4 15.6501 15.6372 17.5001C16.8743 19.3501 18.6328 20.7921 20.6901 21.6436C22.7475 22.495 25.0113 22.7178 27.1954 22.2838C29.3795 21.8497 31.3857 20.7782 32.9603 19.2049C34.5349 17.6315 35.6072 15.627 36.0417 13.4447C36.4761 11.2624 36.2532 9.00045 35.401 6.94479C34.5488 4.88912 33.1057 3.13212 31.2541 1.89596ZM8.71643 33.6022C6.3785 35.9088 5.0434 39.0423 5 42.3248C10.4874 47.2657 17.6122 50 24.9988 50C32.3855 50 39.5103 47.2657 44.9977 42.3248C44.9543 39.0423 43.6192 35.9088 41.2812 33.6022C38.9433 31.2957 35.7905 30.0016 32.505 29.9999H17.4927C14.2072 30.0016 11.0544 31.2957 8.71643 33.6022Z" fill="white"/>
</svg>
