<svg width="50" height="50" viewBox="0 0 50 50" fill="none" xmlns="http://www.w3.org/2000/svg">
<path d="M21.625 46.0018L17.3125 42.0527C12.8958 37.999 8.90667 33.9763 5.345 29.9846C1.78167 25.9945 0 21.5965 0 16.7907C0 12.8624 1.3125 9.58191 3.9375 6.94914C6.5625 4.31638 9.83333 3 13.75 3C15.9583 3 18.0417 3.46972 20 4.40915C21.9583 5.35026 23.625 6.63572 25 8.26553C26.375 6.63572 28.0417 5.35026 30 4.40915C31.9583 3.46972 34.0417 3 36.25 3C40.1667 3 43.4375 4.31638 46.0625 6.94914C48.6875 9.58191 50 12.8624 50 16.7907C50 21.5965 48.2292 26.0053 44.6875 30.0172C41.1458 34.029 37.125 38.0617 32.625 42.1153L28.375 46.0018C27.4167 46.8794 26.2917 47.3182 25 47.3182C23.7083 47.3182 22.5833 46.8794 21.625 46.0018Z" fill="white"/>
</svg>
